<svg width="300" height="300" viewBox="0 0 300 300" fill="none" xmlns="http://www.w3.org/2000/svg">
<rect width="300" height="300" fill="#1E1E1E"/>
<rect width="300" height="300" fill="#EDE0D4"/>
<path fill-rule="evenodd" clip-rule="evenodd" d="M150 72C150 59.8497 140.15 50 128 50H72C59.8497 50 50 59.8497 50 72V128.719C50 140.87 59.8497 150.719 72 150.719H128C140.15 150.719 150 160.569 150 172.719V228C150 240.15 159.85 250 172 250H228C240.15 250 250 240.15 250 228V171.28C250 159.13 240.15 149.281 228 149.281H172C159.85 149.281 150 139.431 150 127.281V72Z" fill="#E6CCB2"/>
<path d="M206.08 176.455H211.716V209.727C211.716 212.697 211.17 215.22 210.08 217.295C208.989 219.371 207.451 220.947 205.466 222.023C203.481 223.098 201.14 223.636 198.443 223.636C195.898 223.636 193.633 223.174 191.648 222.25C189.663 221.311 188.102 219.977 186.966 218.25C185.83 216.523 185.261 214.47 185.261 212.091H190.807C190.807 213.409 191.133 214.561 191.784 215.545C192.451 216.515 193.36 217.273 194.511 217.818C195.663 218.364 196.973 218.636 198.443 218.636C200.064 218.636 201.443 218.295 202.58 217.614C203.716 216.932 204.58 215.932 205.17 214.614C205.777 213.28 206.08 211.652 206.08 209.727V176.455Z" fill="#9C6644"/>
<path d="M86.5114 123V76.4545H114.602V81.4545H92.1477V97.1818H113.148V102.182H92.1477V118H114.966V123H86.5114Z" fill="#9C6644"/>
</svg>
